<?xml version="1.0" encoding="UTF-8" standalone="no"?>
<!DOCTYPE svg PUBLIC "-//W3C//DTD SVG 1.1//EN" "http://www.w3.org/Graphics/SVG/1.1/DTD/svg11.dtd">
<svg width="100%" height="100%" viewBox="0 0 1024 1024" version="1.1" xmlns="http://www.w3.org/2000/svg" xmlns:xlink="http://www.w3.org/1999/xlink" xml:space="preserve" xmlns:serif="http://www.serif.com/" style="fill-rule:evenodd;clip-rule:evenodd;stroke-linejoin:round;stroke-miterlimit:2;">
    <g id="Notes">
    </g>
    <g id="Guides">
    </g>
    <g id="Symbols">
    </g>
    <g id="iOS-Logo" serif:id="iOS Logo" transform="matrix(0.998806,0,0,0.998806,-3572.06,-320.515)">
        <rect x="3576.33" y="320.899" width="1025.22" height="1025.22" style="fill:white;fill-opacity:0;"/>
        <clipPath id="_clip1">
            <rect x="3576.33" y="320.899" width="1025.22" height="1025.22"/>
        </clipPath>
        <g clip-path="url(#_clip1)">
            <g id="Logo">
                <g transform="matrix(0.922622,0,0,0.972611,3611.79,329.59)">
                    <rect x="-38.427" y="-8.936" width="1111.21" height="1054.1" style="fill:url(#_Linear2);"/>
                </g>
                <g id="Regular-S" transform="matrix(9.83877,0,0,9.83877,3628.47,1180.37)">
                    <path d="M32.617,-49.17C34.733,-49.17 36.662,-49.691 38.403,-50.732C40.145,-51.774 41.545,-53.174 42.603,-54.932C43.661,-56.689 44.19,-58.61 44.19,-60.693C44.19,-62.809 43.661,-64.738 42.603,-66.48C41.545,-68.221 40.145,-69.621 38.403,-70.679C36.662,-71.737 34.733,-72.266 32.617,-72.266C30.501,-72.266 28.564,-71.737 26.807,-70.679C25.049,-69.621 23.649,-68.221 22.607,-66.48C21.566,-64.738 21.045,-62.809 21.045,-60.693C21.045,-58.61 21.566,-56.698 22.607,-54.956C23.649,-53.215 25.049,-51.815 26.807,-50.757C28.564,-49.699 30.501,-49.17 32.617,-49.17Z" style="fill:rgb(0,122,255);fill-rule:nonzero;"/>
                    <path d="M61.035,-49.17C63.119,-49.17 65.039,-49.691 66.797,-50.732C68.555,-51.774 69.963,-53.174 71.021,-54.932C72.078,-56.689 72.607,-58.61 72.607,-60.693C72.607,-62.809 72.078,-64.738 71.021,-66.48C69.963,-68.221 68.555,-69.621 66.797,-70.679C65.039,-71.737 63.119,-72.266 61.035,-72.266C58.919,-72.266 56.982,-71.737 55.225,-70.679C53.467,-69.621 52.067,-68.221 51.025,-66.48C49.984,-64.738 49.463,-62.809 49.463,-60.693C49.463,-58.61 49.984,-56.689 51.025,-54.932C52.067,-53.174 53.467,-51.774 55.225,-50.732C56.982,-49.691 58.919,-49.17 61.035,-49.17Z" style="fill:rgb(0,122,255);fill-rule:nonzero;"/>
                    <path d="M18.408,-23.682C20.524,-23.682 22.461,-24.211 24.219,-25.269C25.977,-26.327 27.376,-27.726 28.418,-29.468C29.46,-31.209 29.981,-33.138 29.981,-35.254C29.981,-37.37 29.46,-39.298 28.418,-41.04C27.376,-42.782 25.977,-44.181 24.219,-45.239C22.461,-46.297 20.524,-46.826 18.408,-46.826C16.292,-46.826 14.364,-46.297 12.622,-45.239C10.881,-44.181 9.481,-42.782 8.423,-41.04C7.365,-39.298 6.836,-37.37 6.836,-35.254C6.836,-33.171 7.357,-31.25 8.398,-29.492C9.44,-27.734 10.84,-26.327 12.598,-25.269C14.356,-24.211 16.292,-23.682 18.408,-23.682Z" style="fill:rgb(0,122,255);fill-rule:nonzero;"/>
                    <path d="M46.826,-23.682C48.91,-23.682 50.83,-24.211 52.588,-25.269C54.346,-26.327 55.754,-27.726 56.812,-29.468C57.869,-31.209 58.398,-33.138 58.398,-35.254C58.398,-37.37 57.869,-39.298 56.812,-41.04C55.754,-42.782 54.346,-44.181 52.588,-45.239C50.83,-46.297 48.91,-46.826 46.826,-46.826C44.71,-46.826 42.773,-46.297 41.016,-45.239C39.258,-44.181 37.858,-42.782 36.816,-41.04C35.775,-39.298 35.254,-37.37 35.254,-35.254C35.254,-33.138 35.775,-31.209 36.816,-29.468C37.858,-27.726 39.258,-26.327 41.016,-25.269C42.773,-24.211 44.71,-23.682 46.826,-23.682Z" style="fill:rgb(0,122,255);fill-rule:nonzero;"/>
                    <path d="M75.195,-23.682C77.311,-23.682 79.248,-24.211 81.006,-25.269C82.764,-26.327 84.163,-27.726 85.205,-29.468C86.247,-31.209 86.768,-33.138 86.768,-35.254C86.768,-37.37 86.247,-39.298 85.205,-41.04C84.163,-42.782 82.764,-44.181 81.006,-45.239C79.248,-46.297 77.311,-46.826 75.195,-46.826C73.112,-46.826 71.191,-46.297 69.434,-45.239C67.676,-44.181 66.268,-42.782 65.21,-41.04C64.152,-39.298 63.623,-37.37 63.623,-35.254C63.623,-33.138 64.152,-31.209 65.21,-29.468C66.268,-27.726 67.676,-26.327 69.434,-25.269C71.191,-24.211 73.112,-23.682 75.195,-23.682Z" style="fill:rgb(0,122,255);fill-rule:nonzero;"/>
                    <path d="M32.617,1.758C34.733,1.758 36.662,1.229 38.403,0.171C40.145,-0.887 41.545,-2.287 42.603,-4.028C43.661,-5.77 44.19,-7.699 44.19,-9.814C44.19,-11.898 43.661,-13.818 42.603,-15.576C41.545,-17.334 40.145,-18.734 38.403,-19.775C36.662,-20.817 34.733,-21.338 32.617,-21.338C30.501,-21.338 28.564,-20.817 26.807,-19.775C25.049,-18.734 23.649,-17.334 22.607,-15.576C21.566,-13.818 21.045,-11.898 21.045,-9.814C21.045,-7.731 21.566,-5.811 22.607,-4.053C23.649,-2.295 25.049,-0.887 26.807,0.171C28.564,1.229 30.501,1.758 32.617,1.758Z" style="fill:rgb(0,122,255);fill-rule:nonzero;"/>
                    <path d="M61.035,1.758C63.119,1.758 65.039,1.229 66.797,0.171C68.555,-0.887 69.963,-2.287 71.021,-4.028C72.078,-5.77 72.607,-7.699 72.607,-9.814C72.607,-11.898 72.078,-13.818 71.021,-15.576C69.963,-17.334 68.555,-18.734 66.797,-19.775C65.039,-20.817 63.119,-21.338 61.035,-21.338C58.919,-21.338 56.982,-20.817 55.225,-19.775C53.467,-18.734 52.067,-17.334 51.025,-15.576C49.984,-13.818 49.463,-11.898 49.463,-9.814C49.463,-7.699 49.984,-5.77 51.025,-4.028C52.067,-2.287 53.467,-0.887 55.225,0.171C56.982,1.229 58.919,1.758 61.035,1.758Z" style="fill:rgb(0,122,255);fill-rule:nonzero;"/>
                </g>
            </g>
        </g>
    </g>
    <defs>
        <linearGradient id="_Linear2" x1="0" y1="0" x2="1" y2="0" gradientUnits="userSpaceOnUse" gradientTransform="matrix(5.7314e-14,887.902,-936.009,5.43683e-14,510.289,55.6626)"><stop offset="0" style="stop-color:rgb(184,255,195);stop-opacity:1"/><stop offset="1" style="stop-color:rgb(10,255,177);stop-opacity:1"/></linearGradient>
    </defs>
</svg>
